<svg width="207" height="207" viewBox="0 0 207 207" fill="none" xmlns="http://www.w3.org/2000/svg">
<circle cx="103.5" cy="103.5" r="103.5" fill="url(#paint0_linear_20_2)"/>
<rect x="90" y="94" width="27" height="19" fill="white"/>
<g filter="url(#filter0_d_20_2)">
<rect x="113" y="88" width="31" height="19" transform="rotate(90 113 88)" fill="white"/>
</g>
<path fill-rule="evenodd" clip-rule="evenodd" d="M131 39C151.435 39 168 55.5655 168 76C168 96.4345 151.435 113 131 113H117V94H131C140.941 94 149 85.9411 149 76C149 66.0589 140.941 58 131 58C121.059 58 113 66.0589 113 76V91V94V113V116V131C113 151.435 96.4345 168 76 168C55.5655 168 39 151.435 39 131C39 110.565 55.5655 94 76 94H90V113H76C66.0589 113 58 121.059 58 131C58 140.941 66.0589 149 76 149C85.9411 149 94 140.941 94 131V116V113V94V91V76C94 55.5655 110.565 39 131 39Z" fill="white"/>
<defs>
<filter id="filter0_d_20_2" x="90" y="84" width="27" height="39" filterUnits="userSpaceOnUse" color-interpolation-filters="sRGB">
<feFlood flood-opacity="0" result="BackgroundImageFix"/>
<feColorMatrix in="SourceAlpha" type="matrix" values="0 0 0 0 0 0 0 0 0 0 0 0 0 0 0 0 0 0 127 0" result="hardAlpha"/>
<feOffset/>
<feGaussianBlur stdDeviation="2"/>
<feComposite in2="hardAlpha" operator="out"/>
<feColorMatrix type="matrix" values="0 0 0 0 0 0 0 0 0 0 0 0 0 0 0 0 0 0 0.4 0"/>
<feBlend mode="normal" in2="BackgroundImageFix" result="effect1_dropShadow_20_2"/>
<feBlend mode="normal" in="SourceGraphic" in2="effect1_dropShadow_20_2" result="shape"/>
</filter>
<linearGradient id="paint0_linear_20_2" x1="57" y1="11.5" x2="158" y2="191.5" gradientUnits="userSpaceOnUse">
<stop stop-color="#3562FF"/>
<stop offset="1" stop-color="#3562FF" stop-opacity="0.8"/>
</linearGradient>
</defs>
</svg>
